<svg xmlns="http://www.w3.org/2000/svg" version="1.1" xmlns:xlink="http://www.w3.org/1999/xlink" xmlns:svgjs="http://svgjs.dev/svgjs" width="1000" height="300" preserveAspectRatio="none" viewBox="0 0 1000 300"><g mask="url(&quot;#SvgjsMask1114&quot;)" fill="none"><path d="M9.67 -34.75L51.24 -10.75L51.24 37.25L9.67 61.25L-31.9 37.25L-31.9 -10.75zM51.24 37.25L92.81 61.25L92.81 109.25L51.24 133.25L9.67 109.25L9.67 61.25zM9.67 109.25L51.24 133.25L51.24 181.25L9.67 205.25L-31.9 181.25L-31.9 133.25zM51.24 181.25L92.81 205.25L92.81 253.25L51.24 277.25L9.67 253.25L9.67 205.25zM92.81 -34.75L134.38 -10.75L134.38 37.25L92.81 61.25L51.24 37.25L51.24 -10.75zM217.52 37.25L259.09 61.25L259.09 109.25L217.52 133.25L175.95 109.25L175.95 61.25zM175.95 109.25L217.52 133.25L217.52 181.25L175.95 205.25L134.38 181.25L134.38 133.25zM259.09 109.25L300.66 133.25L300.66 181.25L259.09 205.25L217.52 181.25L217.52 133.25zM300.66 181.25L342.23 205.25L342.23 253.25L300.66 277.25L259.09 253.25L259.09 205.25zM342.23 -34.75L383.8 -10.75L383.8 37.25L342.23 61.25L300.66 37.25L300.66 -10.75zM383.8 37.25L425.37 61.25L425.37 109.25L383.8 133.25L342.23 109.25L342.23 61.25zM342.23 109.25L383.8 133.25L383.8 181.25L342.23 205.25L300.66 181.25L300.66 133.25zM425.37 253.25L466.94 277.25L466.94 325.25L425.37 349.25L383.8 325.25L383.8 277.25zM550.09 37.25L591.66 61.25L591.66 109.25L550.09 133.25L508.51 109.25L508.51 61.25zM591.66 -34.75L633.23 -10.75L633.23 37.25L591.66 61.25L550.09 37.25L550.09 -10.75zM633.23 181.25L674.8 205.25L674.8 253.25L633.23 277.25L591.66 253.25L591.66 205.25zM674.8 -34.75L716.37 -10.75L716.37 37.25L674.8 61.25L633.23 37.25L633.23 -10.75zM716.37 37.25L757.94 61.25L757.94 109.25L716.37 133.25L674.8 109.25L674.8 61.25zM674.8 109.25L716.37 133.25L716.37 181.25L674.8 205.25L633.23 181.25L633.23 133.25zM757.94 253.25L799.51 277.25L799.51 325.25L757.94 349.25L716.37 325.25L716.37 277.25zM841.08 109.25L882.65 133.25L882.65 181.25L841.08 205.25L799.51 181.25L799.51 133.25zM882.65 181.25L924.22 205.25L924.22 253.25L882.65 277.25L841.08 253.25L841.08 205.25zM841.08 253.25L882.65 277.25L882.65 325.25L841.08 349.25L799.51 325.25L799.51 277.25zM924.22 -34.75L965.79 -10.75L965.79 37.25L924.22 61.25L882.65 37.25L882.65 -10.75zM924.22 109.25L965.79 133.25L965.79 181.25L924.22 205.25L882.65 181.25L882.65 133.25zM965.79 181.25L1007.36 205.25L1007.36 253.25L965.79 277.25L924.22 253.25L924.22 205.25zM1048.93 181.25L1090.5 205.25L1090.5 253.25L1048.93 277.25L1007.36 253.25L1007.36 205.25zM1007.36 253.25L1048.93 277.25L1048.93 325.25L1007.36 349.25L965.79 325.25L965.79 277.25z" stroke="rgba(195, 198, 202, 0.37)" stroke-width="2"></path><path d="M4.87 -34.75 a4.8 4.8 0 1 0 9.6 0 a4.8 4.8 0 1 0 -9.6 0zM46.44 -10.75 a4.8 4.8 0 1 0 9.6 0 a4.8 4.8 0 1 0 -9.6 0zM46.44 37.25 a4.8 4.8 0 1 0 9.6 0 a4.8 4.8 0 1 0 -9.6 0zM4.87 61.25 a4.8 4.8 0 1 0 9.6 0 a4.8 4.8 0 1 0 -9.6 0zM-36.7 37.25 a4.8 4.8 0 1 0 9.6 0 a4.8 4.8 0 1 0 -9.6 0zM-36.7 -10.75 a4.8 4.8 0 1 0 9.6 0 a4.8 4.8 0 1 0 -9.6 0zM88.01 61.25 a4.8 4.8 0 1 0 9.6 0 a4.8 4.8 0 1 0 -9.6 0zM88.01 109.25 a4.8 4.8 0 1 0 9.6 0 a4.8 4.8 0 1 0 -9.6 0zM46.44 133.25 a4.8 4.8 0 1 0 9.6 0 a4.8 4.8 0 1 0 -9.6 0zM4.87 109.25 a4.8 4.8 0 1 0 9.6 0 a4.8 4.8 0 1 0 -9.6 0zM46.44 181.25 a4.8 4.8 0 1 0 9.6 0 a4.8 4.8 0 1 0 -9.6 0zM4.87 205.25 a4.8 4.8 0 1 0 9.6 0 a4.8 4.8 0 1 0 -9.6 0zM-36.7 181.25 a4.8 4.8 0 1 0 9.6 0 a4.8 4.8 0 1 0 -9.6 0zM-36.7 133.25 a4.8 4.8 0 1 0 9.6 0 a4.8 4.8 0 1 0 -9.6 0zM88.01 205.25 a4.8 4.8 0 1 0 9.6 0 a4.8 4.8 0 1 0 -9.6 0zM88.01 253.25 a4.8 4.8 0 1 0 9.6 0 a4.8 4.8 0 1 0 -9.6 0zM46.44 277.25 a4.8 4.8 0 1 0 9.6 0 a4.8 4.8 0 1 0 -9.6 0zM4.87 253.25 a4.8 4.8 0 1 0 9.6 0 a4.8 4.8 0 1 0 -9.6 0zM88.01 -34.75 a4.8 4.8 0 1 0 9.6 0 a4.8 4.8 0 1 0 -9.6 0zM129.58 -10.75 a4.8 4.8 0 1 0 9.6 0 a4.8 4.8 0 1 0 -9.6 0zM129.58 37.25 a4.8 4.8 0 1 0 9.6 0 a4.8 4.8 0 1 0 -9.6 0zM212.72 37.25 a4.8 4.8 0 1 0 9.6 0 a4.8 4.8 0 1 0 -9.6 0zM254.29 61.25 a4.8 4.8 0 1 0 9.6 0 a4.8 4.8 0 1 0 -9.6 0zM254.29 109.25 a4.8 4.8 0 1 0 9.6 0 a4.8 4.8 0 1 0 -9.6 0zM212.72 133.25 a4.8 4.8 0 1 0 9.6 0 a4.8 4.8 0 1 0 -9.6 0zM171.15 109.25 a4.8 4.8 0 1 0 9.6 0 a4.8 4.8 0 1 0 -9.6 0zM171.15 61.25 a4.8 4.8 0 1 0 9.6 0 a4.8 4.8 0 1 0 -9.6 0zM212.72 181.25 a4.8 4.8 0 1 0 9.6 0 a4.8 4.8 0 1 0 -9.6 0zM171.15 205.25 a4.8 4.8 0 1 0 9.6 0 a4.8 4.8 0 1 0 -9.6 0zM129.58 181.25 a4.8 4.8 0 1 0 9.6 0 a4.8 4.8 0 1 0 -9.6 0zM129.58 133.25 a4.8 4.8 0 1 0 9.6 0 a4.8 4.8 0 1 0 -9.6 0zM295.86 133.25 a4.8 4.8 0 1 0 9.6 0 a4.8 4.8 0 1 0 -9.6 0zM295.86 181.25 a4.8 4.8 0 1 0 9.6 0 a4.8 4.8 0 1 0 -9.6 0zM254.29 205.25 a4.8 4.8 0 1 0 9.6 0 a4.8 4.8 0 1 0 -9.6 0zM337.43 205.25 a4.8 4.8 0 1 0 9.6 0 a4.8 4.8 0 1 0 -9.6 0zM337.43 253.25 a4.8 4.8 0 1 0 9.6 0 a4.8 4.8 0 1 0 -9.6 0zM295.86 277.25 a4.8 4.8 0 1 0 9.6 0 a4.8 4.8 0 1 0 -9.6 0zM254.29 253.25 a4.8 4.8 0 1 0 9.6 0 a4.8 4.8 0 1 0 -9.6 0zM337.43 -34.75 a4.8 4.8 0 1 0 9.6 0 a4.8 4.8 0 1 0 -9.6 0zM379 -10.75 a4.8 4.8 0 1 0 9.6 0 a4.8 4.8 0 1 0 -9.6 0zM379 37.25 a4.8 4.8 0 1 0 9.6 0 a4.8 4.8 0 1 0 -9.6 0zM337.43 61.25 a4.8 4.8 0 1 0 9.6 0 a4.8 4.8 0 1 0 -9.6 0zM295.86 37.25 a4.8 4.8 0 1 0 9.6 0 a4.8 4.8 0 1 0 -9.6 0zM295.86 -10.75 a4.8 4.8 0 1 0 9.6 0 a4.8 4.8 0 1 0 -9.6 0zM420.57 61.25 a4.8 4.8 0 1 0 9.6 0 a4.8 4.8 0 1 0 -9.6 0zM420.57 109.25 a4.8 4.8 0 1 0 9.6 0 a4.8 4.8 0 1 0 -9.6 0zM379 133.25 a4.8 4.8 0 1 0 9.6 0 a4.8 4.8 0 1 0 -9.6 0zM337.43 109.25 a4.8 4.8 0 1 0 9.6 0 a4.8 4.8 0 1 0 -9.6 0zM379 181.25 a4.8 4.8 0 1 0 9.6 0 a4.8 4.8 0 1 0 -9.6 0zM420.57 253.25 a4.8 4.8 0 1 0 9.6 0 a4.8 4.8 0 1 0 -9.6 0zM462.14 277.25 a4.8 4.8 0 1 0 9.6 0 a4.8 4.8 0 1 0 -9.6 0zM462.14 325.25 a4.8 4.8 0 1 0 9.6 0 a4.8 4.8 0 1 0 -9.6 0zM420.57 349.25 a4.8 4.8 0 1 0 9.6 0 a4.8 4.8 0 1 0 -9.6 0zM379 325.25 a4.8 4.8 0 1 0 9.6 0 a4.8 4.8 0 1 0 -9.6 0zM379 277.25 a4.8 4.8 0 1 0 9.6 0 a4.8 4.8 0 1 0 -9.6 0zM545.29 37.25 a4.8 4.8 0 1 0 9.6 0 a4.8 4.8 0 1 0 -9.6 0zM586.86 61.25 a4.8 4.8 0 1 0 9.6 0 a4.8 4.8 0 1 0 -9.6 0zM586.86 109.25 a4.8 4.8 0 1 0 9.6 0 a4.8 4.8 0 1 0 -9.6 0zM545.29 133.25 a4.8 4.8 0 1 0 9.6 0 a4.8 4.8 0 1 0 -9.6 0zM503.71 109.25 a4.8 4.8 0 1 0 9.6 0 a4.8 4.8 0 1 0 -9.6 0zM503.71 61.25 a4.8 4.8 0 1 0 9.6 0 a4.8 4.8 0 1 0 -9.6 0zM586.86 -34.75 a4.8 4.8 0 1 0 9.6 0 a4.8 4.8 0 1 0 -9.6 0zM628.43 -10.75 a4.8 4.8 0 1 0 9.6 0 a4.8 4.8 0 1 0 -9.6 0zM628.43 37.25 a4.8 4.8 0 1 0 9.6 0 a4.8 4.8 0 1 0 -9.6 0zM545.29 -10.75 a4.8 4.8 0 1 0 9.6 0 a4.8 4.8 0 1 0 -9.6 0zM628.43 181.25 a4.8 4.8 0 1 0 9.6 0 a4.8 4.8 0 1 0 -9.6 0zM670 205.25 a4.8 4.8 0 1 0 9.6 0 a4.8 4.8 0 1 0 -9.6 0zM670 253.25 a4.8 4.8 0 1 0 9.6 0 a4.8 4.8 0 1 0 -9.6 0zM628.43 277.25 a4.8 4.8 0 1 0 9.6 0 a4.8 4.8 0 1 0 -9.6 0zM586.86 253.25 a4.8 4.8 0 1 0 9.6 0 a4.8 4.8 0 1 0 -9.6 0zM586.86 205.25 a4.8 4.8 0 1 0 9.6 0 a4.8 4.8 0 1 0 -9.6 0zM670 -34.75 a4.8 4.8 0 1 0 9.6 0 a4.8 4.8 0 1 0 -9.6 0zM711.57 -10.75 a4.8 4.8 0 1 0 9.6 0 a4.8 4.8 0 1 0 -9.6 0zM711.57 37.25 a4.8 4.8 0 1 0 9.6 0 a4.8 4.8 0 1 0 -9.6 0zM670 61.25 a4.8 4.8 0 1 0 9.6 0 a4.8 4.8 0 1 0 -9.6 0zM753.14 61.25 a4.8 4.8 0 1 0 9.6 0 a4.8 4.8 0 1 0 -9.6 0zM753.14 109.25 a4.8 4.8 0 1 0 9.6 0 a4.8 4.8 0 1 0 -9.6 0zM711.57 133.25 a4.8 4.8 0 1 0 9.6 0 a4.8 4.8 0 1 0 -9.6 0zM670 109.25 a4.8 4.8 0 1 0 9.6 0 a4.8 4.8 0 1 0 -9.6 0zM711.57 181.25 a4.8 4.8 0 1 0 9.6 0 a4.8 4.8 0 1 0 -9.6 0zM628.43 133.25 a4.8 4.8 0 1 0 9.6 0 a4.8 4.8 0 1 0 -9.6 0zM753.14 253.25 a4.8 4.8 0 1 0 9.6 0 a4.8 4.8 0 1 0 -9.6 0zM794.71 277.25 a4.8 4.8 0 1 0 9.6 0 a4.8 4.8 0 1 0 -9.6 0zM794.71 325.25 a4.8 4.8 0 1 0 9.6 0 a4.8 4.8 0 1 0 -9.6 0zM753.14 349.25 a4.8 4.8 0 1 0 9.6 0 a4.8 4.8 0 1 0 -9.6 0zM711.57 325.25 a4.8 4.8 0 1 0 9.6 0 a4.8 4.8 0 1 0 -9.6 0zM711.57 277.25 a4.8 4.8 0 1 0 9.6 0 a4.8 4.8 0 1 0 -9.6 0zM836.28 109.25 a4.8 4.8 0 1 0 9.6 0 a4.8 4.8 0 1 0 -9.6 0zM877.85 133.25 a4.8 4.8 0 1 0 9.6 0 a4.8 4.8 0 1 0 -9.6 0zM877.85 181.25 a4.8 4.8 0 1 0 9.6 0 a4.8 4.8 0 1 0 -9.6 0zM836.28 205.25 a4.8 4.8 0 1 0 9.6 0 a4.8 4.8 0 1 0 -9.6 0zM794.71 181.25 a4.8 4.8 0 1 0 9.6 0 a4.8 4.8 0 1 0 -9.6 0zM794.71 133.25 a4.8 4.8 0 1 0 9.6 0 a4.8 4.8 0 1 0 -9.6 0zM919.42 205.25 a4.8 4.8 0 1 0 9.6 0 a4.8 4.8 0 1 0 -9.6 0zM919.42 253.25 a4.8 4.8 0 1 0 9.6 0 a4.8 4.8 0 1 0 -9.6 0zM877.85 277.25 a4.8 4.8 0 1 0 9.6 0 a4.8 4.8 0 1 0 -9.6 0zM836.28 253.25 a4.8 4.8 0 1 0 9.6 0 a4.8 4.8 0 1 0 -9.6 0zM877.85 325.25 a4.8 4.8 0 1 0 9.6 0 a4.8 4.8 0 1 0 -9.6 0zM836.28 349.25 a4.8 4.8 0 1 0 9.6 0 a4.8 4.8 0 1 0 -9.6 0zM919.42 -34.75 a4.8 4.8 0 1 0 9.6 0 a4.8 4.8 0 1 0 -9.6 0zM960.99 -10.75 a4.8 4.8 0 1 0 9.6 0 a4.8 4.8 0 1 0 -9.6 0zM960.99 37.25 a4.8 4.8 0 1 0 9.6 0 a4.8 4.8 0 1 0 -9.6 0zM919.42 61.25 a4.8 4.8 0 1 0 9.6 0 a4.8 4.8 0 1 0 -9.6 0zM877.85 37.25 a4.8 4.8 0 1 0 9.6 0 a4.8 4.8 0 1 0 -9.6 0zM877.85 -10.75 a4.8 4.8 0 1 0 9.6 0 a4.8 4.8 0 1 0 -9.6 0zM919.42 109.25 a4.8 4.8 0 1 0 9.6 0 a4.8 4.8 0 1 0 -9.6 0zM960.99 133.25 a4.8 4.8 0 1 0 9.6 0 a4.8 4.8 0 1 0 -9.6 0zM960.99 181.25 a4.8 4.8 0 1 0 9.6 0 a4.8 4.8 0 1 0 -9.6 0zM1002.56 205.25 a4.8 4.8 0 1 0 9.6 0 a4.8 4.8 0 1 0 -9.6 0zM1002.56 253.25 a4.8 4.8 0 1 0 9.6 0 a4.8 4.8 0 1 0 -9.6 0zM960.99 277.25 a4.8 4.8 0 1 0 9.6 0 a4.8 4.8 0 1 0 -9.6 0zM1044.13 181.25 a4.8 4.8 0 1 0 9.6 0 a4.8 4.8 0 1 0 -9.6 0zM1085.7 205.25 a4.8 4.8 0 1 0 9.6 0 a4.8 4.8 0 1 0 -9.6 0zM1085.7 253.25 a4.8 4.8 0 1 0 9.6 0 a4.8 4.8 0 1 0 -9.6 0zM1044.13 277.25 a4.8 4.8 0 1 0 9.6 0 a4.8 4.8 0 1 0 -9.6 0zM1044.13 325.25 a4.8 4.8 0 1 0 9.6 0 a4.8 4.8 0 1 0 -9.6 0zM1002.56 349.25 a4.8 4.8 0 1 0 9.6 0 a4.8 4.8 0 1 0 -9.6 0zM960.99 325.25 a4.8 4.8 0 1 0 9.6 0 a4.8 4.8 0 1 0 -9.6 0z" fill="rgba(195, 198, 202, 0.37)"></path><path d="M172.24 206.28L215.54 231.28L215.54 281.28L172.24 306.28L128.94 281.28L128.94 231.28zM215.54 131.28L258.84 156.28L258.84 206.28L215.54 231.28L172.24 206.28L172.24 156.28zM215.54 281.28L258.84 306.28L258.84 356.28L215.54 381.28L172.24 356.28L172.24 306.28zM388.75 -18.72L432.05 6.28L432.05 56.28L388.75 81.28L345.45 56.28L345.45 6.28zM432.05 56.28L475.36 81.28L475.36 131.28L432.05 156.28L388.75 131.28L388.75 81.28zM518.66 56.28L561.96 81.28L561.96 131.28L518.66 156.28L475.36 131.28L475.36 81.28zM475.36 281.28L518.66 306.28L518.66 356.28L475.36 381.28L432.05 356.28L432.05 306.28zM691.87 56.28L735.17 81.28L735.17 131.28L691.87 156.28L648.57 131.28L648.57 81.28zM691.87 206.28L735.17 231.28L735.17 281.28L691.87 306.28L648.57 281.28L648.57 231.28zM821.78 -18.72L865.08 6.28L865.08 56.28L821.78 81.28L778.47 56.28L778.47 6.28zM821.78 281.28L865.08 306.28L865.08 356.28L821.78 381.28L778.47 356.28L778.47 306.28zM908.38 281.28L951.68 306.28L951.68 356.28L908.38 381.28L865.08 356.28L865.08 306.28zM994.99 -18.72L1038.29 6.28L1038.29 56.28L994.99 81.28L951.68 56.28L951.68 6.28zM1038.29 206.28L1081.59 231.28L1081.59 281.28L1038.29 306.28L994.99 281.28L994.99 231.28z" stroke="rgba(0, 0, 0, 0)" stroke-width="2"></path></g><defs><mask id="SvgjsMask1114"><rect width="1000" height="300" fill="#ffffff"></rect></mask></defs></svg>